<svg width="117" height="49" viewBox="0 0 117 49" fill="none" xmlns="http://www.w3.org/2000/svg">
<path d="M21.24 42.9354C17.52 42.9354 14.24 42.0354 11.4 40.2354C8.6 38.4354 6.44 35.9954 4.92 32.9154C3.4 29.7954 2.64 26.3354 2.64 22.5354C2.64 18.6154 3.46 14.9954 5.1 11.6753C6.78 8.35535 9.04 5.73535 11.88 3.81535C14.76 1.89535 17.88 0.935351 21.24 0.935351C24.44 0.935351 27.24 1.39535 29.64 2.31535C32.08 3.19535 33.88 4.33535 35.04 5.73535C35.72 6.57535 36.14 7.69535 36.3 9.09535C36.46 10.4553 36.54 12.3353 36.54 14.7354H35.34C34.58 10.8553 33.18 7.99535 31.14 6.15535C29.1 4.27535 26.4 3.33535 23.04 3.33535C18.72 3.33535 15.24 4.85535 12.6 7.89535C9.96 10.9353 8.64 15.8153 8.64 22.5354C8.64 25.6954 9.14 28.6354 10.14 31.3554C11.18 34.0754 12.78 36.2954 14.94 38.0154C17.1 39.6954 19.8 40.5354 23.04 40.5354C25.96 40.5354 28.5 39.8354 30.66 38.4354C32.86 37.0354 34.82 34.9354 36.54 32.1354L37.74 33.0354C35.9 36.6354 33.62 39.1954 30.9 40.7154C28.22 42.1954 25 42.9354 21.24 42.9354Z" fill="#DB2723"/>
<path d="M44.0583 21.2154C44.0583 19.9234 43.8809 18.9734 43.5263 18.3654C43.1716 17.732 42.4623 17.4153 41.3983 17.4153H40.6383V16.6554H50.5943C55.5089 16.6554 59.2203 17.7447 61.7283 19.9234C64.2616 22.102 65.5283 25.142 65.5283 29.0434C65.5283 31.5514 64.9963 33.768 63.9323 35.6934C62.8683 37.5934 61.2849 39.0754 59.1823 40.1394C57.1049 41.2034 54.5716 41.7354 51.5823 41.7354H44.0583V21.2154ZM51.4683 40.4054C53.3429 40.4054 55.0276 39.9494 56.5223 39.0374C58.0423 38.1 59.2329 36.7954 60.0943 35.1234C60.9556 33.426 61.3863 31.45 61.3863 29.1954C61.3863 26.9914 60.9556 25.0407 60.0943 23.3434C59.2583 21.646 58.0803 20.3287 56.5603 19.3914C55.0403 18.454 53.3176 17.9854 51.3923 17.9854C50.1763 17.9854 48.9096 18.188 47.5923 18.5934V39.9114C49.0109 40.2407 50.3029 40.4054 51.4683 40.4054ZM77.9103 42.3814C76.517 42.3814 75.149 42.1914 73.8063 41.8114C72.4637 41.4314 71.3617 40.8867 70.5003 40.1774C69.6643 39.468 69.2463 38.6574 69.2463 37.7454V33.6794H69.9303C70.361 36.2127 71.197 38.0494 72.4383 39.1894C73.6797 40.304 75.3897 40.8614 77.5683 40.8614C78.9363 40.8614 80.1017 40.5194 81.0643 39.8354C82.0523 39.1514 82.5463 38.2014 82.5463 36.9854C82.5463 35.9214 82.217 34.9967 81.5583 34.2114C80.8997 33.426 79.8357 32.6027 78.3663 31.7414L73.6923 28.9674C72.071 28.0047 70.9183 27.0294 70.2343 26.0414C69.5757 25.0534 69.2463 23.85 69.2463 22.4314C69.2463 20.4807 69.9177 18.9227 71.2603 17.7573C72.6283 16.5667 74.4143 15.9714 76.6183 15.9714C77.9103 15.9714 79.1897 16.1614 80.4563 16.5413C81.723 16.896 82.7617 17.428 83.5723 18.1373C84.4083 18.8213 84.8263 19.6194 84.8263 20.5314V24.5974H84.1423C83.7117 22.064 82.8883 20.2527 81.6723 19.1633C80.4817 18.0487 78.797 17.4914 76.6183 17.4914C75.453 17.4914 74.427 17.846 73.5403 18.5554C72.6537 19.2647 72.2103 20.1894 72.2103 21.3294C72.2103 22.368 72.527 23.2294 73.1603 23.9134C73.819 24.5974 74.9083 25.3954 76.4283 26.3074L81.1023 29.0814C82.825 30.12 84.041 31.0827 84.7503 31.9694C85.4597 32.856 85.8143 33.9834 85.8143 35.3514C85.8143 37.4794 85.105 39.1894 83.6863 40.4814C82.2677 41.748 80.3423 42.3814 77.9103 42.3814ZM93.1561 21.7854V41.7354H91.6361V21.2154C91.6361 19.9994 91.3701 19.062 90.8381 18.4034C90.3314 17.7447 89.4574 17.4153 88.2161 17.4153H87.8361V16.6554H90.3061C91.4714 16.6554 92.4594 16.8454 93.2701 17.2254C94.0807 17.6053 94.8027 18.1753 95.4361 18.9354L108.736 35.4654V16.6554H110.256V42.1154H109.496L93.1561 21.7854Z" fill="#4D4E4F"/>
</svg>
